<?xml version="1.0" encoding="UTF-8"?>
<!DOCTYPE svg PUBLIC "-//W3C//DTD SVG 1.1//EN" "http://www.w3.org/Graphics/SVG/1.1/DTD/svg11.dtd">
<svg version="1.2" width="254mm" height="254mm" viewBox="0 0 25400 25400" preserveAspectRatio="xMidYMid" fill-rule="evenodd" stroke-width="28.222" stroke-linejoin="round" xmlns="http://www.w3.org/2000/svg" xmlns:ooo="http://xml.openoffice.org/svg/export" xmlns:xlink="http://www.w3.org/1999/xlink" xmlns:presentation="http://sun.com/xmlns/staroffice/presentation" xmlns:smil="http://www.w3.org/2001/SMIL20/" xmlns:anim="urn:oasis:names:tc:opendocument:xmlns:animation:1.0" xml:space="preserve">
 <defs class="ClipPathGroup">
  <clipPath id="presentation_clip_path" clipPathUnits="userSpaceOnUse">
   <rect x="0" y="0" width="25400" height="25400"/>
  </clipPath>
  <clipPath id="presentation_clip_path_shrink" clipPathUnits="userSpaceOnUse">
   <rect x="25" y="25" width="25350" height="25350"/>
  </clipPath>
 </defs>
 <defs class="TextShapeIndex">
  <g ooo:slide="id1" ooo:id-list="id3 id4 id5 id6 id7 id8"/>
 </defs>
 <defs class="EmbeddedBulletChars">
  <g id="bullet-char-template-57356" transform="scale(0.00048828125,-0.00048828125)">
   <path d="M 580,1141 L 1163,571 580,0 -4,571 580,1141 Z"/>
  </g>
  <g id="bullet-char-template-57354" transform="scale(0.00048828125,-0.00048828125)">
   <path d="M 8,1128 L 1137,1128 1137,0 8,0 8,1128 Z"/>
  </g>
  <g id="bullet-char-template-10146" transform="scale(0.00048828125,-0.00048828125)">
   <path d="M 174,0 L 602,739 174,1481 1456,739 174,0 Z M 1358,739 L 309,1346 659,739 1358,739 Z"/>
  </g>
  <g id="bullet-char-template-10132" transform="scale(0.00048828125,-0.00048828125)">
   <path d="M 2015,739 L 1276,0 717,0 1260,543 174,543 174,936 1260,936 717,1481 1274,1481 2015,739 Z"/>
  </g>
  <g id="bullet-char-template-10007" transform="scale(0.00048828125,-0.00048828125)">
   <path d="M 0,-2 C -7,14 -16,27 -25,37 L 356,567 C 262,823 215,952 215,954 215,979 228,992 255,992 264,992 276,990 289,987 310,991 331,999 354,1012 L 381,999 492,748 772,1049 836,1024 860,1049 C 881,1039 901,1025 922,1006 886,937 835,863 770,784 769,783 710,716 594,584 L 774,223 C 774,196 753,168 711,139 L 727,119 C 717,90 699,76 672,76 641,76 570,178 457,381 L 164,-76 C 142,-110 111,-127 72,-127 30,-127 9,-110 8,-76 1,-67 -2,-52 -2,-32 -2,-23 -1,-13 0,-2 Z"/>
  </g>
  <g id="bullet-char-template-10004" transform="scale(0.00048828125,-0.00048828125)">
   <path d="M 285,-33 C 182,-33 111,30 74,156 52,228 41,333 41,471 41,549 55,616 82,672 116,743 169,778 240,778 293,778 328,747 346,684 L 369,508 C 377,444 397,411 428,410 L 1163,1116 C 1174,1127 1196,1133 1229,1133 1271,1133 1292,1118 1292,1087 L 1292,965 C 1292,929 1282,901 1262,881 L 442,47 C 390,-6 338,-33 285,-33 Z"/>
  </g>
  <g id="bullet-char-template-9679" transform="scale(0.00048828125,-0.00048828125)">
   <path d="M 813,0 C 632,0 489,54 383,161 276,268 223,411 223,592 223,773 276,916 383,1023 489,1130 632,1184 813,1184 992,1184 1136,1130 1245,1023 1353,916 1407,772 1407,592 1407,412 1353,268 1245,161 1136,54 992,0 813,0 Z"/>
  </g>
  <g id="bullet-char-template-8226" transform="scale(0.00048828125,-0.00048828125)">
   <path d="M 346,457 C 273,457 209,483 155,535 101,586 74,649 74,723 74,796 101,859 155,911 209,963 273,989 346,989 419,989 480,963 531,910 582,859 608,796 608,723 608,648 583,586 532,535 482,483 420,457 346,457 Z"/>
  </g>
  <g id="bullet-char-template-8211" transform="scale(0.00048828125,-0.00048828125)">
   <path d="M -4,459 L 1135,459 1135,606 -4,606 -4,459 Z"/>
  </g>
  <g id="bullet-char-template-61548" transform="scale(0.00048828125,-0.00048828125)">
   <path d="M 173,740 C 173,903 231,1043 346,1159 462,1274 601,1332 765,1332 928,1332 1067,1274 1183,1159 1299,1043 1357,903 1357,740 1357,577 1299,437 1183,322 1067,206 928,148 765,148 601,148 462,206 346,322 231,437 173,577 173,740 Z"/>
  </g>
 </defs>
 <g>
  <g id="id2" class="Master_Slide">
   <g id="bg-id2" class="Background"/>
   <g id="bo-id2" class="BackgroundObjects"/>
  </g>
 </g>
 <g class="SlideGroup">
  <g>
   <g id="container-id1">
    <g id="id1" class="Slide" clip-path="url(#presentation_clip_path)">
     <g class="Page">
      <g class="com.sun.star.drawing.PolyPolygonShape">
       <g id="id3">
        <rect class="BoundingBox" stroke="none" fill="none" x="2539" y="5968" width="20322" height="14737"/>
        <path fill="none" stroke="rgb(0,0,0)" stroke-width="762" stroke-linejoin="round" stroke-linecap="round" d="M 2921,12319 L 2939,12297 2939,12277 2955,12277 7810,6349 17589,6349 22445,12277 22478,12277 22478,12318 22479,12319 22478,12319 22478,17144 22451,17144 22451,17147 22444,17355 22425,17562 22392,17767 22347,17968 22289,18167 22219,18361 22136,18550 22042,18734 21936,18911 21819,19080 21692,19241 21556,19392 21410,19534 21256,19665 21093,19786 20923,19897 20746,19995 20564,20081 20377,20154 20186,20214 19992,20261 19795,20295 19595,20315 19395,20322 19194,20315 18995,20295 18798,20261 18604,20214 18413,20154 18226,20081 18044,19995 17867,19897 17696,19786 17534,19665 17379,19534 17234,19392 17097,19241 16971,19080 16854,18911 16748,18734 16653,18550 16571,18361 16501,18167 16443,17968 16397,17767 16365,17562 16345,17355 16339,17147 16339,17144 16339,17144 16318,17144 16318,17110 15192,15239 10256,15239 9070,17210 9065,17354 9046,17561 9013,17766 8968,17967 8910,18166 8840,18360 8757,18549 8663,18733 8557,18910 8440,19079 8313,19240 8177,19391 8031,19533 7877,19664 7714,19785 7544,19896 7367,19994 7185,20080 6998,20153 6807,20213 6613,20260 6416,20294 6216,20314 6016,20321 5815,20314 5616,20294 5419,20260 5225,20213 5034,20153 4847,20080 4665,19994 4488,19896 4317,19785 4155,19664 4000,19533 3855,19391 3718,19240 3592,19079 3475,18910 3369,18733 3274,18549 3192,18360 3122,18166 3064,17967 3018,17766 2986,17561 2966,17354 2959,17146 2960,17144 2939,17144 2939,12319 2921,12319 Z"/>
       </g>
      </g>
      <g class="com.sun.star.drawing.CustomShape">
       <g id="id4">
        <rect class="BoundingBox" stroke="none" fill="none" x="6896" y="9271" width="4574" height="4574"/>
        <path fill="rgb(0,0,0)" stroke="none" d="M 8704,9652 L 9660,9652 9660,11079 11088,11079 11088,12035 9660,12035 9660,13463 8704,13463 8704,12035 7277,12035 7277,11079 8704,11079 8704,9652 8704,9652 Z"/>
        <path fill="none" stroke="rgb(0,0,0)" stroke-width="762" stroke-linejoin="round" stroke-linecap="round" d="M 8704,9652 L 9660,9652 9660,11079 11088,11079 11088,12035 9660,12035 9660,13463 8704,13463 8704,12035 7277,12035 7277,11079 8704,11079 8704,9652 8704,9652 Z"/>
       </g>
      </g>
      <g class="com.sun.star.drawing.CustomShape">
       <g id="id5">
        <rect class="BoundingBox" stroke="none" fill="none" x="15918" y="8870" width="1779" height="1779"/>
        <path fill="rgb(0,0,0)" stroke="none" d="M 16807,10267 L 16299,10267 16299,9251 17315,9251 17315,10267 16807,10267 Z"/>
        <path fill="none" stroke="rgb(0,0,0)" stroke-width="762" stroke-linejoin="round" stroke-linecap="round" d="M 16807,10267 L 16299,10267 16299,9251 17315,9251 17315,10267 16807,10267 Z"/>
       </g>
      </g>
      <g class="com.sun.star.drawing.CustomShape">
       <g id="id6">
        <rect class="BoundingBox" stroke="none" fill="none" x="15918" y="12370" width="1779" height="1779"/>
        <path fill="rgb(0,0,0)" stroke="none" d="M 16807,13767 L 16299,13767 16299,12751 17315,12751 17315,13767 16807,13767 Z"/>
        <path fill="none" stroke="rgb(0,0,0)" stroke-width="762" stroke-linejoin="round" stroke-linecap="round" d="M 16807,13767 L 16299,13767 16299,12751 17315,12751 17315,13767 16807,13767 Z"/>
       </g>
      </g>
      <g class="com.sun.star.drawing.CustomShape">
       <g id="id7">
        <rect class="BoundingBox" stroke="none" fill="none" x="17918" y="10670" width="1779" height="1779"/>
        <path fill="rgb(0,0,0)" stroke="none" d="M 18807,12067 L 18299,12067 18299,11051 19315,11051 19315,12067 18807,12067 Z"/>
        <path fill="none" stroke="rgb(0,0,0)" stroke-width="762" stroke-linejoin="round" stroke-linecap="round" d="M 18807,12067 L 18299,12067 18299,11051 19315,11051 19315,12067 18807,12067 Z"/>
       </g>
      </g>
      <g class="com.sun.star.drawing.CustomShape">
       <g id="id8">
        <rect class="BoundingBox" stroke="none" fill="none" x="13918" y="10670" width="1779" height="1779"/>
        <path fill="rgb(0,0,0)" stroke="none" d="M 14807,12067 L 14299,12067 14299,11051 15315,11051 15315,12067 14807,12067 Z"/>
        <path fill="none" stroke="rgb(0,0,0)" stroke-width="762" stroke-linejoin="round" stroke-linecap="round" d="M 14807,12067 L 14299,12067 14299,11051 15315,11051 15315,12067 14807,12067 Z"/>
       </g>
      </g>
     </g>
    </g>
   </g>
  </g>
 </g>
</svg>