<?xml version="1.0" encoding="UTF-8"?>
<!DOCTYPE svg PUBLIC "-//W3C//DTD SVG 1.1//EN" "http://www.w3.org/Graphics/SVG/1.1/DTD/svg11.dtd">
<svg version="1.2" width="254mm" height="254mm" viewBox="0 0 25400 25400" preserveAspectRatio="xMidYMid" fill-rule="evenodd" stroke-width="28.222" stroke-linejoin="round" xmlns="http://www.w3.org/2000/svg" xmlns:ooo="http://xml.openoffice.org/svg/export" xmlns:xlink="http://www.w3.org/1999/xlink" xmlns:presentation="http://sun.com/xmlns/staroffice/presentation" xmlns:smil="http://www.w3.org/2001/SMIL20/" xmlns:anim="urn:oasis:names:tc:opendocument:xmlns:animation:1.0" xml:space="preserve">
 <defs class="ClipPathGroup">
  <clipPath id="presentation_clip_path" clipPathUnits="userSpaceOnUse">
   <rect x="0" y="0" width="25400" height="25400"/>
  </clipPath>
  <clipPath id="presentation_clip_path_shrink" clipPathUnits="userSpaceOnUse">
   <rect x="25" y="25" width="25350" height="25350"/>
  </clipPath>
 </defs>
 <defs class="TextShapeIndex">
  <g ooo:slide="id1" ooo:id-list="id3 id4 id5 id6 id7 id8"/>
 </defs>
 <defs class="EmbeddedBulletChars">
  <g id="bullet-char-template-57356" transform="scale(0.00048828125,-0.00048828125)">
   <path d="M 580,1141 L 1163,571 580,0 -4,571 580,1141 Z"/>
  </g>
  <g id="bullet-char-template-57354" transform="scale(0.00048828125,-0.00048828125)">
   <path d="M 8,1128 L 1137,1128 1137,0 8,0 8,1128 Z"/>
  </g>
  <g id="bullet-char-template-10146" transform="scale(0.00048828125,-0.00048828125)">
   <path d="M 174,0 L 602,739 174,1481 1456,739 174,0 Z M 1358,739 L 309,1346 659,739 1358,739 Z"/>
  </g>
  <g id="bullet-char-template-10132" transform="scale(0.00048828125,-0.00048828125)">
   <path d="M 2015,739 L 1276,0 717,0 1260,543 174,543 174,936 1260,936 717,1481 1274,1481 2015,739 Z"/>
  </g>
  <g id="bullet-char-template-10007" transform="scale(0.00048828125,-0.00048828125)">
   <path d="M 0,-2 C -7,14 -16,27 -25,37 L 356,567 C 262,823 215,952 215,954 215,979 228,992 255,992 264,992 276,990 289,987 310,991 331,999 354,1012 L 381,999 492,748 772,1049 836,1024 860,1049 C 881,1039 901,1025 922,1006 886,937 835,863 770,784 769,783 710,716 594,584 L 774,223 C 774,196 753,168 711,139 L 727,119 C 717,90 699,76 672,76 641,76 570,178 457,381 L 164,-76 C 142,-110 111,-127 72,-127 30,-127 9,-110 8,-76 1,-67 -2,-52 -2,-32 -2,-23 -1,-13 0,-2 Z"/>
  </g>
  <g id="bullet-char-template-10004" transform="scale(0.00048828125,-0.00048828125)">
   <path d="M 285,-33 C 182,-33 111,30 74,156 52,228 41,333 41,471 41,549 55,616 82,672 116,743 169,778 240,778 293,778 328,747 346,684 L 369,508 C 377,444 397,411 428,410 L 1163,1116 C 1174,1127 1196,1133 1229,1133 1271,1133 1292,1118 1292,1087 L 1292,965 C 1292,929 1282,901 1262,881 L 442,47 C 390,-6 338,-33 285,-33 Z"/>
  </g>
  <g id="bullet-char-template-9679" transform="scale(0.00048828125,-0.00048828125)">
   <path d="M 813,0 C 632,0 489,54 383,161 276,268 223,411 223,592 223,773 276,916 383,1023 489,1130 632,1184 813,1184 992,1184 1136,1130 1245,1023 1353,916 1407,772 1407,592 1407,412 1353,268 1245,161 1136,54 992,0 813,0 Z"/>
  </g>
  <g id="bullet-char-template-8226" transform="scale(0.00048828125,-0.00048828125)">
   <path d="M 346,457 C 273,457 209,483 155,535 101,586 74,649 74,723 74,796 101,859 155,911 209,963 273,989 346,989 419,989 480,963 531,910 582,859 608,796 608,723 608,648 583,586 532,535 482,483 420,457 346,457 Z"/>
  </g>
  <g id="bullet-char-template-8211" transform="scale(0.00048828125,-0.00048828125)">
   <path d="M -4,459 L 1135,459 1135,606 -4,606 -4,459 Z"/>
  </g>
  <g id="bullet-char-template-61548" transform="scale(0.00048828125,-0.00048828125)">
   <path d="M 173,740 C 173,903 231,1043 346,1159 462,1274 601,1332 765,1332 928,1332 1067,1274 1183,1159 1299,1043 1357,903 1357,740 1357,577 1299,437 1183,322 1067,206 928,148 765,148 601,148 462,206 346,322 231,437 173,577 173,740 Z"/>
  </g>
 </defs>
 <g>
  <g id="id2" class="Master_Slide">
   <g id="bg-id2" class="Background"/>
   <g id="bo-id2" class="BackgroundObjects"/>
  </g>
 </g>
 <g class="SlideGroup">
  <g>
   <g id="container-id1">
    <g id="id1" class="Slide" clip-path="url(#presentation_clip_path)">
     <g class="Page">
      <g class="com.sun.star.drawing.ClosedBezierShape">
       <g id="id3">
        <rect class="BoundingBox" stroke="none" fill="none" x="5080" y="8560" width="15241" height="8130"/>
        <path fill="none" stroke="rgb(17,17,17)" stroke-width="1270" stroke-linejoin="round" stroke-linecap="round" d="M 11075,15050 C 10881,15261 10663,15444 10424,15595 10186,15745 9931,15860 9667,15937 9403,16014 9130,16054 8855,16054 8579,16054 8306,16014 8042,15937 7778,15860 7523,15745 7285,15595 7046,15444 6828,15261 6635,15050 6441,14838 6273,14600 6136,14339 5998,14079 5893,13800 5822,13512 5751,13224 5715,12926 5715,12625 5715,12323 5751,12025 5822,11737 5893,11449 5998,11170 6136,10910 6273,10649 6441,10411 6635,10199 6828,9988 7046,9805 7285,9654 7523,9504 7778,9389 8042,9312 8240,9254 8444,9217 8650,9202 8679,9197 8708,9195 8738,9195 L 8855,9195 16545,9195 16644,9195 C 16669,9195 16693,9197 16718,9200 16935,9213 17149,9251 17358,9312 17622,9389 17877,9504 18115,9654 18354,9805 18572,9988 18765,10199 18959,10411 19127,10649 19264,10910 19402,11170 19507,11449 19578,11737 19649,12025 19685,12323 19685,12624 19685,12926 19649,13224 19578,13512 19507,13800 19402,14079 19264,14339 19127,14600 18959,14838 18765,15050 18572,15261 18354,15444 18115,15595 17877,15745 17622,15860 17358,15937 17094,16014 16821,16054 16545,16054 16270,16054 15997,16014 15733,15937 15469,15860 15214,15745 14976,15595 14737,15444 14519,15261 14325,15050 14248,14965 14175,14876 14106,14783 L 11294,14783 C 11225,14876 11152,14965 11075,15050 Z"/>
       </g>
      </g>
      <g class="com.sun.star.drawing.CustomShape">
       <g id="id4">
        <rect class="BoundingBox" stroke="none" fill="none" x="7239" y="10921" width="3304" height="3305"/>
        <path fill="rgb(0,0,0)" stroke="none" d="M 8572,11303 L 9208,11303 9208,12255 10161,12255 10161,12891 9208,12891 9208,13844 8572,13844 8572,12891 7620,12891 7620,12255 8572,12255 8572,11303 8572,11303 Z"/>
        <path fill="none" stroke="rgb(17,17,17)" stroke-width="762" stroke-linejoin="round" stroke-linecap="round" d="M 8572,11303 L 9208,11303 9208,12255 10161,12255 10161,12891 9208,12891 9208,13844 8572,13844 8572,12891 7620,12891 7620,12255 8572,12255 8572,11303 8572,11303 Z"/>
       </g>
      </g>
      <g class="com.sun.star.drawing.CustomShape">
       <g id="id5">
        <rect class="BoundingBox" stroke="none" fill="none" x="15747" y="10667" width="1398" height="1398"/>
        <path fill="rgb(0,0,0)" stroke="none" d="M 16446,11683 L 16128,11683 16128,11048 16763,11048 16763,11683 16446,11683 Z"/>
        <path fill="none" stroke="rgb(17,17,17)" stroke-width="762" stroke-linejoin="round" stroke-linecap="round" d="M 16446,11683 L 16128,11683 16128,11048 16763,11048 16763,11683 16446,11683 Z"/>
       </g>
      </g>
      <g class="com.sun.star.drawing.CustomShape">
       <g id="id6">
        <rect class="BoundingBox" stroke="none" fill="none" x="15747" y="13207" width="1398" height="1398"/>
        <path fill="rgb(0,0,0)" stroke="none" d="M 16446,14223 L 16128,14223 16128,13588 16763,13588 16763,14223 16446,14223 Z"/>
        <path fill="none" stroke="rgb(17,17,17)" stroke-width="762" stroke-linejoin="round" stroke-linecap="round" d="M 16446,14223 L 16128,14223 16128,13588 16763,13588 16763,14223 16446,14223 Z"/>
       </g>
      </g>
      <g class="com.sun.star.drawing.CustomShape">
       <g id="id7">
        <rect class="BoundingBox" stroke="none" fill="none" x="17017" y="11937" width="1398" height="1398"/>
        <path fill="rgb(0,0,0)" stroke="none" d="M 17716,12953 L 17398,12953 17398,12318 18033,12318 18033,12953 17716,12953 Z"/>
        <path fill="none" stroke="rgb(17,17,17)" stroke-width="762" stroke-linejoin="round" stroke-linecap="round" d="M 17716,12953 L 17398,12953 17398,12318 18033,12318 18033,12953 17716,12953 Z"/>
       </g>
      </g>
      <g class="com.sun.star.drawing.CustomShape">
       <g id="id8">
        <rect class="BoundingBox" stroke="none" fill="none" x="14477" y="11937" width="1398" height="1398"/>
        <path fill="rgb(0,0,0)" stroke="none" d="M 15176,12953 L 14858,12953 14858,12318 15493,12318 15493,12953 15176,12953 Z"/>
        <path fill="none" stroke="rgb(17,17,17)" stroke-width="762" stroke-linejoin="round" stroke-linecap="round" d="M 15176,12953 L 14858,12953 14858,12318 15493,12318 15493,12953 15176,12953 Z"/>
       </g>
      </g>
     </g>
    </g>
   </g>
  </g>
 </g>
</svg>